<svg width="7061" height="7061" viewBox="0 0 7061 7061" fill="none" xmlns="http://www.w3.org/2000/svg">
<rect width="7061" height="7061" fill="white"/>
<rect x="2136" y="2855" width="630" height="630" rx="100" fill="#00E1C6"/>
<path d="M2856 2955C2856 2899.77 2900.77 2855 2956 2855H3386C3441.23 2855 3486 2899.77 3486 2955V3485H2856V2955Z" fill="#00E1C6"/>
<rect x="2856" y="3575" width="630" height="630" fill="#00E1C6"/>
<path d="M3576 3575H4006C4116.46 3575 4206 3664.54 4206 3775V4005C4206 4115.46 4116.46 4205 4006 4205H3576V3575Z" fill="black"/>
<rect x="2136" y="3575" width="630" height="630" rx="100" fill="#00E1C6"/>
<path d="M3576 2855H4206V3285C4206 3395.46 4116.46 3485 4006 3485H3776C3665.54 3485 3576 3395.46 3576 3285V2855Z" fill="#00E1C6"/>
<path d="M2210 2930V2855C2168.58 2855 2135 2888.58 2135 2930H2210ZM2210 3410H2135C2135 3451.42 2168.58 3485 2210 3485V3410ZM2691 3410V3485C2732.42 3485 2766 3451.42 2766 3410H2691ZM2691 3170H2766C2766 3128.58 2732.42 3095 2691 3095V3170ZM2450 3095H2375V3245H2450V3095ZM2766 2855H2210V3005H2766V2855ZM2135 2930V3410H2285V2930H2135ZM2210 3485H2691V3335H2210V3485ZM2766 3410V3170H2616V3410H2766ZM2691 3095H2450V3245H2691V3095Z" fill="black"/>
<path d="M2931 3485V3170.07M2931 3170.07V2930H3411V3170.07H2931Z" stroke="black" stroke-width="150" stroke-linejoin="round"/>
<path d="M3651 2855V3310C3651 3365.23 3695.77 3410 3751 3410H4031C4086.23 3410 4131 3365.23 4131 3310V2855" stroke="black" stroke-width="150"/>
<path d="M2691 4205L2691 3650L2451 3650M2211 4205L2211 3650L2451 3650M2451 3650L2451 4205" stroke="black" stroke-width="150" stroke-linejoin="round"/>
<rect x="4296" y="4205" width="630" height="630" rx="100" transform="rotate(-90 4296 4205)" fill="#00E1C6"/>
<path d="M4926 3650L4371 3650V3890M4926 4130L4371 4130L4371 3890M4371 3890L4926 3890" stroke="black" stroke-width="150" stroke-linejoin="round"/>
<rect x="3726" y="3725" width="330" height="330" fill="#00E1C6"/>
<circle cx="3171" cy="3890" r="165" fill="black"/>
</svg>
